<svg xmlns="http://www.w3.org/2000/svg" version="1.1" xmlns:xlink="http://www.w3.org/1999/xlink" xmlns:svgjs="http://svgjs.com/svgjs" width="1000" height="1000"><rect width="1000" height="1000" rx="200" ry="200" fill="#000000"></rect><g transform="matrix(0.9523809523809523,0,0,0.9523809523809523,49.9999990321341,140.21242559523813)"><svg xmlns="http://www.w3.org/2000/svg" version="1.1" xmlns:xlink="http://www.w3.org/1999/xlink" xmlns:svgjs="http://svgjs.com/svgjs" width="945" height="756"><svg xmlns="http://www.w3.org/2000/svg" xmlns:xlink="http://www.w3.org/1999/xlink" width="945" zoomAndPan="magnify" viewBox="0 0 708.75 567.000005" height="756" preserveAspectRatio="xMidYMid meet" version="1.0"><defs><g></g><clipPath id="id1"><path d="M 0.5 0 L 708 0 L 708 566 L 0.5 566 Z M 0.5 0 " clip-rule="nonzero"></path></clipPath><clipPath id="id2"><path d="M 59 18 L 597 18 L 597 556 L 59 556 Z M 59 18 " clip-rule="nonzero"></path></clipPath><clipPath id="id3"><path d="M 205.550781 -95.097656 L 737.152344 144.777344 L 504.21875 660.992188 L -27.382812 421.121094 Z M 205.550781 -95.097656 " clip-rule="nonzero"></path></clipPath><clipPath id="id4"><path d="M 205.550781 -95.097656 L 737.152344 144.777344 L 504.21875 660.992188 L -27.382812 421.121094 Z M 205.550781 -95.097656 " clip-rule="nonzero"></path></clipPath><clipPath id="id5"><path d="M 193.449219 -68.277344 L 684.105469 153.121094 L 463.328125 642.410156 L -27.332031 421.011719 Z M 193.449219 -68.277344 " clip-rule="nonzero"></path></clipPath><clipPath id="id6"><path d="M 193.449219 -68.277344 L 684.105469 153.121094 L 463.5 642.023438 L -27.160156 420.625 Z M 193.449219 -68.277344 " clip-rule="nonzero"></path></clipPath><clipPath id="id7"><path d="M 92 6 L 648 6 L 648 561 L 92 561 Z M 92 6 " clip-rule="nonzero"></path></clipPath><clipPath id="id8"><path d="M 205.550781 -95.097656 L 737.152344 144.777344 L 504.21875 660.992188 L -27.382812 421.121094 Z M 205.550781 -95.097656 " clip-rule="nonzero"></path></clipPath><clipPath id="id9"><path d="M 205.550781 -95.097656 L 737.152344 144.777344 L 504.21875 660.992188 L -27.382812 421.121094 Z M 205.550781 -95.097656 " clip-rule="nonzero"></path></clipPath><clipPath id="id10"><path d="M 230.546875 -83.15625 L 737.671875 145.671875 L 509.484375 651.378906 L 2.359375 422.550781 Z M 230.546875 -83.15625 " clip-rule="nonzero"></path></clipPath><clipPath id="id11"><path d="M 230.546875 -83.15625 L 736.925781 145.335938 L 508.738281 651.042969 L 2.359375 422.550781 Z M 230.546875 -83.15625 " clip-rule="nonzero"></path></clipPath><clipPath id="id12"><path d="M 210.515625 237.519531 L 326.785156 237.519531 L 326.785156 320.03125 L 210.515625 320.03125 Z M 210.515625 237.519531 " clip-rule="nonzero"></path></clipPath><clipPath id="id13"><path d="M 210.867188 264.789062 L 327.136719 264.789062 L 327.136719 352.925781 L 210.867188 352.925781 Z M 210.867188 264.789062 " clip-rule="nonzero"></path></clipPath><clipPath id="id14"><path d="M 308.257812 237.519531 L 424.523438 237.519531 L 424.523438 400.671875 L 308.257812 400.671875 Z M 308.257812 237.519531 " clip-rule="nonzero"></path></clipPath><clipPath id="id15"><path d="M 220.449219 231.660156 L 332.96875 231.660156 L 332.96875 312.296875 L 220.449219 312.296875 Z M 220.449219 231.660156 " clip-rule="nonzero"></path></clipPath><clipPath id="id16"><path d="M 221.332031 257.597656 L 333.847656 257.597656 L 333.847656 343.859375 L 221.332031 343.859375 Z M 221.332031 257.597656 " clip-rule="nonzero"></path></clipPath><clipPath id="id17"><path d="M 315.476562 231.660156 L 427.992188 231.660156 L 427.992188 391.058594 L 315.476562 391.058594 Z M 315.476562 231.660156 " clip-rule="nonzero"></path></clipPath></defs><g clip-path="url(#id1)"><path fill="rgb(100%, 100%, 100%)" d="M 0.5 0 L 708.25 0 L 708.25 573.691406 L 0.5 573.691406 Z M 0.5 0 " fill-opacity="1" fill-rule="nonzero"></path><path fill="rgb(17.649841%, 15.689087%, 12.939453%)" d="M 0.5 0 L 708.25 0 L 708.25 566.203125 L 0.5 566.203125 Z M 0.5 0 " fill-opacity="1" fill-rule="nonzero"></path><path fill="rgb(100%, 100%, 100%)" d="M 0.5 0 L 708.25 0 L 708.25 566.203125 L 0.5 566.203125 Z M 0.5 0 " fill-opacity="1" fill-rule="nonzero"></path><path fill="rgb(17.649841%, 15.689087%, 12.939453%)" d="M 0.5 0 L 708.25 0 L 708.25 566.203125 L 0.5 566.203125 Z M 0.5 0 " fill-opacity="1" fill-rule="nonzero"></path></g><g clip-path="url(#id2)"><g clip-path="url(#id3)"><g clip-path="url(#id4)"><g clip-path="url(#id5)"><g clip-path="url(#id6)"><path fill="rgb(100%, 86.669922%, 19.999695%)" d="M 438.355469 42.519531 C 573.679688 103.582031 634.015625 262.472656 573.128906 397.410156 C 512.238281 532.351562 353.179688 592.246094 217.859375 531.183594 C 82.539062 470.125 22.203125 311.234375 83.089844 176.292969 C 143.980469 41.351562 303.039062 -18.539062 438.355469 42.519531 " fill-opacity="1" fill-rule="nonzero"></path></g></g></g></g></g><g clip-path="url(#id7)"><g clip-path="url(#id8)"><g clip-path="url(#id9)"><g clip-path="url(#id10)"><g clip-path="url(#id11)"><path fill="rgb(16.079712%, 60.389709%, 28.239441%)" d="M 606.578125 390.300781 C 584.257812 439.363281 547.488281 480.058594 501.019531 507.433594 C 456.304688 533.773438 403.128906 545.800781 351.363281 542.035156 C 296.796875 538.058594 244.363281 516.417969 202.449219 481.355469 C 162.039062 447.550781 133.320312 401.488281 119.195312 350.949219 C 89.839844 245.921875 133.269531 131.105469 222.578125 69.613281 C 265.6875 39.929688 317.46875 24.433594 369.78125 24.167969 C 423.886719 23.890625 477.929688 42.003906 521.757812 73.535156 C 564.707031 104.4375 597.011719 148.261719 614.734375 197.949219 C 632.539062 247.890625 633.941406 302.460938 620.046875 353.441406 C 616.609375 366.0625 611.925781 378.363281 606.578125 390.300781 C 601.835938 400.902344 618.300781 408.335938 623.042969 397.726562 C 645.398438 347.773438 652.773438 292.019531 643.65625 237.976562 C 634.808594 185.558594 610.609375 135.972656 574.648438 96.730469 C 536.773438 55.402344 487.0625 26.660156 432.597656 13.546875 C 380.335938 0.960938 324.644531 4.839844 274.25 22.988281 C 169.964844 60.53125 96.824219 160.773438 92.320312 271.300781 C 90.132812 324.949219 103.859375 378.03125 130.972656 424.390625 C 158.527344 471.511719 200.652344 509.339844 249.695312 533.128906 C 348.558594 581.085938 469.992188 564.378906 552.546875 492.574219 C 582.609375 466.433594 606.5625 433.953125 623.042969 397.726562 C 627.859375 387.152344 611.390625 379.726562 606.578125 390.300781 " fill-opacity="1" fill-rule="nonzero"></path></g></g></g></g></g><g fill="rgb(100%, 100%, 100%)" fill-opacity="1"><g transform="translate(119.050792, 349.224105)"><g><path d="M 98.890625 -68.664062 C 98.890625 -80.050781 93.785156 -90.183594 85.828125 -97.550781 C 77.789062 -104.835938 66.988281 -109.273438 55.601562 -109.273438 L 20.765625 -109.273438 C 16.496094 -109.273438 13.984375 -108.605469 12.476562 -107.433594 C 10.96875 -106.261719 10.382812 -104.503906 10.382812 -102.492188 C 10.382812 -100.902344 10.632812 -99.144531 11.054688 -97.300781 C 11.472656 -95.375 11.808594 -93.53125 11.890625 -91.691406 L 11.890625 -14.738281 C 11.890625 -10.132812 13.648438 -6.027344 16.578125 -3.097656 C 19.511719 -0.0820312 23.53125 1.675781 28.21875 1.675781 C 32.824219 1.675781 36.84375 -0.0820312 39.859375 -3.097656 C 42.789062 -6.027344 44.546875 -10.132812 44.546875 -14.738281 L 44.546875 -28.972656 L 53.757812 -28.972656 L 71.761719 -4.355469 C 74.523438 -0.921875 78.292969 1.089844 82.3125 1.507812 C 86.332031 1.925781 90.433594 0.753906 94.035156 -2.007812 C 97.636719 -4.773438 99.644531 -8.792969 100.0625 -12.894531 C 100.484375 -16.914062 99.308594 -21.101562 96.296875 -24.449219 L 83.734375 -38.6875 C 92.863281 -45.972656 98.890625 -56.523438 98.890625 -68.664062 Z M 66.820312 -67.660156 C 66.820312 -64.558594 65.566406 -61.796875 63.554688 -59.871094 C 61.546875 -57.863281 58.699219 -56.6875 55.601562 -56.6875 L 43.878906 -56.6875 L 43.878906 -80.21875 L 55.601562 -80.21875 C 58.699219 -80.21875 61.546875 -78.628906 63.554688 -76.285156 C 65.566406 -73.9375 66.820312 -70.757812 66.820312 -67.660156 Z M 66.820312 -67.660156 "></path></g></g></g><g fill="rgb(100%, 100%, 100%)" fill-opacity="1"><g transform="translate(400.623761, 349.215142)"><g><path d="M 99.519531 -91.730469 C 99.519531 -96.335938 97.679688 -100.359375 94.660156 -103.375 C 91.644531 -106.304688 87.542969 -108.148438 83.101562 -108.148438 L 18.933594 -108.148438 C 14.324219 -108.148438 10.386719 -106.390625 7.457031 -103.457031 C 4.441406 -100.441406 2.679688 -96.421875 2.679688 -91.730469 C 2.679688 -87.121094 4.441406 -83.019531 7.457031 -80.085938 C 10.386719 -77.152344 14.324219 -75.394531 18.933594 -75.394531 L 34.847656 -75.394531 L 35.183594 -14.742188 C 35.183594 -10.136719 36.859375 -6.117188 39.707031 -3.183594 C 42.554688 -0.167969 46.578125 1.675781 51.269531 1.675781 C 55.875 1.675781 59.898438 -0.0820312 62.746094 -3.097656 C 65.59375 -6.03125 67.269531 -10.136719 67.269531 -14.742188 L 67.6875 -75.394531 L 83.101562 -75.394531 C 87.542969 -75.394531 91.644531 -77.238281 94.660156 -80.167969 C 97.679688 -83.101562 99.519531 -87.121094 99.519531 -91.730469 Z M 99.519531 -91.730469 "></path></g></g></g><g fill="rgb(100%, 100%, 100%)" fill-opacity="1"><g transform="translate(491.83787, 349.215142)"><g><path d="M 65.175781 -69.613281 C 69.949219 -69.613281 73.96875 -70.453125 76.734375 -72.546875 C 79.5 -74.558594 81.089844 -77.90625 81.089844 -82.683594 C 81.089844 -87.960938 78.660156 -92.566406 74.808594 -96.335938 C 70.953125 -100.105469 65.761719 -103.039062 60.484375 -105.050781 C 55.121094 -107.058594 49.675781 -108.148438 45.320312 -108.148438 C 32.585938 -108.148438 22.535156 -104.796875 15.75 -99.019531 C 8.964844 -93.238281 5.363281 -85.027344 5.363281 -75.226562 C 5.363281 -64.589844 10.21875 -56.964844 16.753906 -51.269531 C 23.289062 -45.570312 31.332031 -41.886719 37.863281 -39.039062 C 41.132812 -37.613281 43.8125 -36.355469 45.992188 -35.351562 C 48.085938 -34.261719 49.175781 -33.257812 49.175781 -32.253906 C 49.175781 -29.65625 46.160156 -28.984375 43.226562 -28.984375 C 41.96875 -28.984375 40.042969 -29.238281 37.863281 -29.824219 C 35.6875 -30.410156 33.425781 -31.246094 31.832031 -32.503906 C 26.21875 -36.777344 21.78125 -39.289062 17.089844 -39.289062 C 12.816406 -39.289062 9.296875 -37.699219 6.703125 -35.101562 C 4.105469 -32.503906 2.679688 -28.734375 2.679688 -24.628906 C 2.679688 -18.933594 5.527344 -12.3125 11.980469 -7.121094 C 18.429688 -1.925781 28.648438 1.84375 43.140625 1.84375 C 48.753906 1.84375 55.121094 0.753906 61.238281 -1.675781 C 67.351562 -4.019531 73.132812 -7.625 77.40625 -12.648438 C 81.675781 -17.59375 84.359375 -24.042969 84.359375 -31.832031 C 84.359375 -35.601562 83.6875 -38.953125 82.347656 -41.96875 C 79.582031 -48 74.976562 -52.945312 69.277344 -56.964844 C 63.582031 -60.984375 57.46875 -64.253906 51.769531 -66.933594 C 48.921875 -68.273438 46.410156 -69.53125 44.148438 -70.785156 C 39.707031 -73.132812 36.691406 -75.226562 36.691406 -77.488281 C 36.691406 -78.492188 37.53125 -79.332031 38.703125 -79.835938 C 39.875 -80.335938 41.300781 -80.503906 42.554688 -80.503906 C 44.816406 -80.503906 47.5 -78.074219 51.101562 -74.976562 C 54.03125 -72.378906 56.378906 -71.121094 58.640625 -70.453125 C 60.902344 -69.699219 62.914062 -69.613281 65.175781 -69.613281 Z M 65.175781 -69.613281 "></path></g></g></g><g clip-path="url(#id12)"><path fill="rgb(100%, 100%, 100%)" d="M 268.652344 319.09375 C 255.816406 319.09375 245.410156 308.660156 245.410156 295.789062 C 245.410156 282.914062 255.816406 272.480469 268.652344 272.480469 C 281.492188 272.480469 291.898438 282.914062 291.898438 295.789062 C 291.898438 308.660156 281.492188 319.09375 268.652344 319.09375 Z M 268.652344 237.519531 C 236.558594 237.519531 210.539062 263.605469 210.539062 295.789062 C 210.539062 327.96875 268.652344 400.671875 268.652344 400.671875 C 268.652344 400.671875 326.765625 327.96875 326.765625 295.789062 C 326.765625 263.605469 300.75 237.519531 268.652344 237.519531 " fill-opacity="1" fill-rule="nonzero"></path></g><g clip-path="url(#id13)"><path fill="rgb(100%, 100%, 100%)" d="M 269 271.351562 C 281.839844 271.351562 292.246094 281.785156 292.246094 294.65625 C 292.246094 307.53125 281.839844 317.964844 269 317.964844 C 256.164062 317.964844 245.753906 307.53125 245.753906 294.65625 C 245.753906 281.785156 256.164062 271.351562 269 271.351562 Z M 269 352.925781 C 301.09375 352.925781 327.113281 326.839844 327.113281 294.65625 C 327.113281 262.476562 269 189.777344 269 189.777344 C 269 189.777344 210.886719 262.476562 210.886719 294.65625 C 210.886719 326.839844 236.90625 352.925781 269 352.925781 " fill-opacity="1" fill-rule="nonzero"></path></g><g clip-path="url(#id14)"><path fill="rgb(100%, 100%, 100%)" d="M 366.394531 319.09375 C 353.554688 319.09375 343.148438 308.660156 343.148438 295.789062 C 343.148438 282.914062 353.554688 272.480469 366.394531 272.480469 C 379.230469 272.480469 389.636719 282.914062 389.636719 295.789062 C 389.636719 308.660156 379.230469 319.09375 366.394531 319.09375 Z M 366.394531 237.519531 C 334.296875 237.519531 308.28125 263.605469 308.28125 295.789062 C 308.28125 327.96875 366.394531 400.671875 366.394531 400.671875 C 366.394531 400.671875 424.507812 327.96875 424.507812 295.789062 C 424.507812 263.605469 398.488281 237.519531 366.394531 237.519531 " fill-opacity="1" fill-rule="nonzero"></path></g><g fill="rgb(90.19928%, 12.939453%, 12.939453%)" fill-opacity="1"><g transform="translate(131.542231, 339.895201)"><g><path d="M 96.136719 -66.75 C 96.136719 -77.820312 91.171875 -87.667969 83.4375 -94.832031 C 75.621094 -101.914062 65.121094 -106.230469 54.050781 -106.230469 L 20.1875 -106.230469 C 16.035156 -106.230469 13.59375 -105.578125 12.128906 -104.4375 C 10.664062 -103.300781 10.09375 -101.589844 10.09375 -99.636719 C 10.09375 -98.089844 10.339844 -96.378906 10.746094 -94.589844 C 11.152344 -92.714844 11.476562 -90.925781 11.558594 -89.136719 L 11.558594 -14.328125 C 11.558594 -9.851562 13.269531 -5.859375 16.117188 -3.011719 C 18.964844 -0.0820312 22.875 1.628906 27.433594 1.628906 C 31.910156 1.628906 35.816406 -0.0820312 38.746094 -3.011719 C 41.597656 -5.859375 43.304688 -9.851562 43.304688 -14.328125 L 43.304688 -28.164062 L 52.261719 -28.164062 L 69.761719 -4.234375 C 72.449219 -0.894531 76.109375 1.058594 80.019531 1.464844 C 83.925781 1.871094 87.914062 0.734375 91.414062 -1.953125 C 94.914062 -4.640625 96.867188 -8.546875 97.273438 -12.535156 C 97.683594 -16.441406 96.542969 -20.511719 93.613281 -23.769531 L 81.402344 -37.609375 C 90.273438 -44.691406 96.136719 -54.945312 96.136719 -66.75 Z M 64.957031 -65.773438 C 64.957031 -62.761719 63.738281 -60.074219 61.785156 -58.203125 C 59.832031 -56.25 57.0625 -55.109375 54.050781 -55.109375 L 42.65625 -55.109375 L 42.65625 -77.984375 L 54.050781 -77.984375 C 57.0625 -77.984375 59.832031 -76.4375 61.785156 -74.15625 C 63.738281 -71.878906 64.957031 -68.785156 64.957031 -65.773438 Z M 64.957031 -65.773438 "></path></g></g></g><g fill="rgb(90.19928%, 12.939453%, 12.939453%)" fill-opacity="1"><g transform="translate(405.276592, 339.886528)"><g><path d="M 96.761719 -89.1875 C 96.761719 -93.667969 94.96875 -97.578125 92.039062 -100.507812 C 89.105469 -103.359375 85.113281 -105.152344 80.796875 -105.152344 L 18.40625 -105.152344 C 13.929688 -105.152344 10.101562 -103.441406 7.25 -100.589844 C 4.316406 -97.65625 2.605469 -93.75 2.605469 -89.1875 C 2.605469 -84.707031 4.316406 -80.714844 7.25 -77.867188 C 10.101562 -75.015625 13.929688 -73.304688 18.40625 -73.304688 L 33.882812 -73.304688 L 34.207031 -14.335938 C 34.207031 -9.855469 35.835938 -5.945312 38.605469 -3.09375 C 41.375 -0.164062 45.285156 1.628906 49.847656 1.628906 C 54.328125 1.628906 58.234375 -0.0820312 61.003906 -3.011719 C 63.773438 -5.863281 65.402344 -9.855469 65.402344 -14.335938 L 65.8125 -73.304688 L 80.796875 -73.304688 C 85.113281 -73.304688 89.105469 -75.097656 92.039062 -77.945312 C 94.96875 -80.796875 96.761719 -84.707031 96.761719 -89.1875 Z M 96.761719 -89.1875 "></path></g></g></g><g fill="rgb(90.19928%, 12.939453%, 12.939453%)" fill-opacity="1"><g transform="translate(493.966217, 339.886528)"><g><path d="M 63.367188 -67.683594 C 68.011719 -67.683594 71.917969 -68.5 74.609375 -70.535156 C 77.296875 -72.488281 78.84375 -75.746094 78.84375 -80.390625 C 78.84375 -85.523438 76.480469 -90 72.734375 -93.667969 C 68.988281 -97.332031 63.9375 -100.183594 58.804688 -102.136719 C 53.59375 -104.09375 48.300781 -105.152344 44.0625 -105.152344 C 31.683594 -105.152344 21.910156 -101.894531 15.3125 -96.273438 C 8.714844 -90.652344 5.210938 -82.671875 5.210938 -73.140625 C 5.210938 -62.796875 9.9375 -55.386719 16.289062 -49.847656 C 22.644531 -44.308594 30.460938 -40.726562 36.816406 -37.957031 C 39.992188 -36.570312 42.597656 -35.347656 44.714844 -34.371094 C 46.75 -33.3125 47.8125 -32.335938 47.8125 -31.359375 C 47.8125 -28.832031 44.878906 -28.179688 42.027344 -28.179688 C 40.804688 -28.179688 38.933594 -28.425781 36.816406 -28.996094 C 34.699219 -29.566406 32.5 -30.378906 30.949219 -31.601562 C 25.492188 -35.757812 21.175781 -38.199219 16.617188 -38.199219 C 12.460938 -38.199219 9.039062 -36.652344 6.515625 -34.128906 C 3.992188 -31.601562 2.605469 -27.9375 2.605469 -23.945312 C 2.605469 -18.40625 5.375 -11.972656 11.648438 -6.921875 C 17.917969 -1.875 27.855469 1.792969 41.945312 1.792969 C 47.402344 1.792969 53.59375 0.734375 59.539062 -1.628906 C 65.484375 -3.910156 71.105469 -7.410156 75.257812 -12.300781 C 79.414062 -17.105469 82.019531 -23.375 82.019531 -30.949219 C 82.019531 -34.617188 81.367188 -37.875 80.066406 -40.804688 C 77.375 -46.671875 72.898438 -51.476562 67.359375 -55.386719 C 61.820312 -59.296875 55.875 -62.472656 50.335938 -65.078125 C 47.566406 -66.382812 45.121094 -67.601562 42.921875 -68.824219 C 38.605469 -71.105469 35.675781 -73.140625 35.675781 -75.339844 C 35.675781 -76.316406 36.488281 -77.132812 37.628906 -77.621094 C 38.769531 -78.109375 40.15625 -78.273438 41.375 -78.273438 C 43.574219 -78.273438 46.183594 -75.910156 49.683594 -72.898438 C 52.535156 -70.371094 54.816406 -69.152344 57.015625 -68.5 C 59.214844 -67.765625 61.167969 -67.683594 63.367188 -67.683594 Z M 63.367188 -67.683594 "></path></g></g></g><g clip-path="url(#id15)"><path fill="rgb(90.19928%, 12.939453%, 12.939453%)" d="M 276.710938 311.359375 C 264.289062 311.359375 254.21875 301.164062 254.21875 288.589844 C 254.21875 276.011719 264.289062 265.816406 276.710938 265.816406 C 289.136719 265.816406 299.207031 276.011719 299.207031 288.589844 C 299.207031 301.164062 289.136719 311.359375 276.710938 311.359375 Z M 276.710938 231.660156 C 245.652344 231.660156 220.472656 257.148438 220.472656 288.589844 C 220.472656 320.03125 276.710938 391.058594 276.710938 391.058594 C 276.710938 391.058594 332.949219 320.03125 332.949219 288.589844 C 332.949219 257.148438 307.773438 231.660156 276.710938 231.660156 " fill-opacity="1" fill-rule="nonzero"></path></g><g clip-path="url(#id16)"><path fill="rgb(90.19928%, 12.939453%, 12.939453%)" d="M 277.585938 264.160156 C 290.011719 264.160156 300.082031 274.355469 300.082031 286.933594 C 300.082031 299.507812 290.011719 309.703125 277.585938 309.703125 C 265.164062 309.703125 255.089844 299.507812 255.089844 286.933594 C 255.089844 274.355469 265.164062 264.160156 277.585938 264.160156 Z M 277.585938 343.859375 C 308.644531 343.859375 333.824219 318.375 333.824219 286.933594 C 333.824219 255.492188 277.585938 184.460938 277.585938 184.460938 C 277.585938 184.460938 221.347656 255.492188 221.347656 286.933594 C 221.347656 318.375 246.527344 343.859375 277.585938 343.859375 " fill-opacity="1" fill-rule="nonzero"></path></g><g clip-path="url(#id17)"><path fill="rgb(90.19928%, 12.939453%, 12.939453%)" d="M 371.738281 311.359375 C 359.3125 311.359375 349.242188 301.164062 349.242188 288.589844 C 349.242188 276.011719 359.3125 265.816406 371.738281 265.816406 C 384.160156 265.816406 394.230469 276.011719 394.230469 288.589844 C 394.230469 301.164062 384.160156 311.359375 371.738281 311.359375 Z M 371.738281 231.660156 C 340.679688 231.660156 315.5 257.148438 315.5 288.589844 C 315.5 320.03125 371.738281 391.058594 371.738281 391.058594 C 371.738281 391.058594 427.976562 320.03125 427.976562 288.589844 C 427.976562 257.148438 402.796875 231.660156 371.738281 231.660156 " fill-opacity="1" fill-rule="nonzero"></path></g></svg></svg></g></svg>