<?xml version="1.0" standalone="no"?>
<!DOCTYPE svg PUBLIC "-//W3C//DTD SVG 20010904//EN"
 "http://www.w3.org/TR/2001/REC-SVG-20010904/DTD/svg10.dtd">
<svg version="1.0" xmlns="http://www.w3.org/2000/svg"
 width="2000.000000pt" height="2000.000000pt" viewBox="0 0 2000.000000 2000.000000"
 preserveAspectRatio="xMidYMid meet">
<metadata>
Created by potrace 1.14, written by Peter Selinger 2001-2017
</metadata>
<g transform="translate(0.000000,2000.000000) scale(0.100000,-0.100000)"
fill="#000000" stroke="none">
<path d="M10077 17244 c-1 -1 -49 -5 -107 -9 -58 -4 -121 -8 -140 -10 -19 -2
-66 -6 -105 -10 -92 -8 -119 -11 -185 -20 -60 -7 -104 -13 -165 -21 -45 -5
-55 -7 -180 -28 -49 -8 -110 -18 -135 -21 -24 -4 -48 -8 -51 -11 -4 -2 -24 -6
-45 -9 -22 -4 -47 -8 -56 -11 -10 -3 -30 -7 -45 -10 -16 -3 -62 -14 -103 -24
-41 -10 -86 -21 -100 -23 -14 -3 -45 -10 -70 -17 -25 -7 -52 -13 -60 -15 -44
-9 -342 -99 -455 -138 -71 -24 -191 -65 -265 -90 -74 -26 -229 -71 -345 -102
-115 -31 -217 -58 -225 -61 -8 -3 -16 -5 -17 -5 -12 0 -442 -152 -478 -169
-11 -5 -54 -23 -95 -39 -216 -84 -561 -250 -808 -388 -338 -189 -804 -509
-1038 -713 -22 -19 -58 -49 -80 -66 -21 -18 -55 -47 -75 -65 -20 -19 -74 -68
-120 -110 -68 -62 -363 -355 -404 -403 -237 -270 -331 -385 -481 -586 -87
-117 -243 -347 -309 -455 -26 -44 -58 -96 -70 -115 -13 -19 -37 -62 -55 -95
-19 -33 -53 -96 -78 -140 -105 -191 -297 -608 -391 -851 -143 -371 -287 -881
-345 -1219 -19 -110 -46 -276 -50 -305 -2 -19 -7 -57 -11 -85 -3 -27 -8 -63
-10 -80 -2 -16 -7 -59 -10 -95 -4 -36 -8 -78 -10 -95 -2 -16 -7 -82 -10 -145
-4 -63 -8 -140 -10 -170 -6 -83 -5 -494 0 -590 3 -47 7 -128 10 -180 3 -52 7
-111 9 -130 3 -19 7 -66 11 -105 6 -70 10 -102 20 -185 9 -68 15 -109 25 -170
5 -30 12 -71 14 -90 7 -53 23 -139 35 -193 6 -26 14 -64 17 -85 3 -20 7 -43
10 -51 3 -8 14 -55 25 -105 71 -326 229 -815 372 -1151 138 -325 323 -683 489
-948 37 -60 68 -111 68 -113 0 -3 5 -10 10 -17 6 -7 40 -56 76 -110 57 -87
189 -275 211 -302 5 -5 42 -53 82 -105 41 -52 77 -97 80 -100 3 -3 24 -27 46
-55 21 -27 42 -52 45 -55 3 -3 20 -23 39 -45 159 -188 481 -515 676 -686 246
-216 503 -412 770 -588 249 -163 276 -180 448 -275 705 -391 1413 -647 2187
-791 14 -3 35 -7 47 -9 11 -3 43 -8 70 -12 26 -3 57 -8 68 -11 11 -2 38 -6 60
-9 22 -3 72 -9 110 -14 39 -5 95 -12 125 -15 30 -3 66 -8 80 -10 14 -2 59 -6
100 -9 185 -15 216 -18 230 -21 8 -2 31 -7 50 -10 19 -3 85 -14 145 -25 61
-10 146 -24 190 -30 105 -15 135 -19 165 -25 14 -2 57 -7 95 -10 39 -3 95 -8
125 -11 30 -3 73 -7 95 -9 202 -20 721 -26 955 -11 205 12 351 24 400 31 27 4
96 12 170 20 79 9 239 33 335 50 350 64 613 128 915 221 174 55 468 157 530
186 25 11 61 26 80 33 19 7 55 21 80 32 25 11 104 46 175 78 189 84 418 201
587 300 32 19 61 35 63 35 2 0 70 41 152 91 173 107 316 203 463 312 58 42
116 85 130 95 33 23 240 192 320 261 119 102 153 134 380 361 288 287 450 473
680 780 439 588 779 1222 1025 1916 111 313 227 734 278 1014 3 14 14 75 25
135 12 61 26 146 32 190 7 44 13 87 15 95 9 51 18 131 30 250 3 36 8 79 10 95
2 17 7 82 11 145 3 63 8 133 10 155 4 51 4 610 0 690 -5 99 -17 258 -21 290
-2 17 -7 66 -10 110 -4 44 -9 88 -10 97 -2 9 -7 48 -10 85 -4 37 -9 75 -11 84
-3 9 -7 34 -9 55 -3 22 -10 64 -15 94 -5 30 -12 73 -15 95 -4 22 -8 47 -10 55
-2 8 -7 31 -10 50 -3 19 -11 55 -16 80 -6 25 -13 54 -15 65 -16 81 -38 171
-73 305 -23 85 -43 163 -45 173 -48 187 -186 574 -324 902 -46 109 -224 472
-287 587 -289 519 -626 995 -984 1388 -152 167 -455 466 -581 575 -20 17 -65
55 -100 85 -333 285 -827 627 -1180 817 -41 22 -92 50 -112 61 -57 33 -245
126 -323 162 -241 110 -374 167 -522 224 -143 55 -395 143 -428 150 -5 2 -48
14 -95 29 -47 14 -112 34 -145 43 -176 47 -284 75 -315 80 -19 3 -48 9 -65 14
-16 4 -48 12 -70 16 -22 4 -44 8 -50 10 -20 4 -231 43 -265 49 -19 3 -46 8
-60 10 -14 3 -43 7 -65 10 -47 6 -121 15 -153 20 -13 2 -53 7 -90 10 -37 3
-85 8 -107 10 -22 2 -76 7 -120 10 -44 3 -109 9 -145 12 -59 5 -727 12 -733 7z
m889 -489 c49 -3 96 -8 104 -10 8 -2 49 -7 90 -10 41 -3 86 -8 100 -10 14 -3
39 -7 55 -9 17 -2 50 -7 75 -11 25 -4 59 -9 75 -11 148 -21 454 -87 650 -140
72 -20 155 -42 185 -50 152 -41 599 -201 739 -265 24 -11 65 -29 91 -39 75
-30 389 -183 512 -251 520 -285 1013 -639 1402 -1009 618 -587 1069 -1195
1451 -1959 45 -91 97 -200 115 -241 18 -41 40 -93 50 -115 54 -121 139 -345
200 -524 40 -121 126 -412 134 -455 2 -12 15 -68 29 -126 26 -105 63 -284 73
-350 3 -19 7 -46 10 -60 7 -38 14 -83 33 -220 14 -100 19 -144 36 -315 14
-144 20 -320 20 -595 0 -337 -10 -543 -39 -775 -2 -16 -7 -57 -11 -90 -4 -32
-8 -66 -10 -75 -1 -8 -6 -37 -9 -65 -9 -64 -57 -338 -61 -345 -2 -3 -6 -21 -9
-40 -44 -273 -218 -854 -340 -1133 -7 -18 -33 -77 -56 -132 -182 -427 -362
-752 -667 -1205 -79 -117 -293 -393 -402 -520 -12 -14 -43 -50 -69 -80 -146
-171 -456 -482 -607 -611 -22 -19 -44 -39 -50 -45 -5 -6 -37 -33 -70 -60 -33
-27 -65 -53 -71 -59 -6 -5 -28 -23 -49 -40 -20 -16 -42 -35 -49 -40 -92 -83
-502 -366 -711 -492 -178 -107 -308 -178 -490 -267 -197 -97 -319 -151 -495
-220 -80 -32 -165 -65 -190 -75 -145 -59 -733 -232 -785 -231 -13 1 26 19 150
70 231 97 655 314 856 441 43 27 81 49 84 49 3 0 11 4 18 10 7 5 75 51 152
101 378 248 770 570 1105 908 210 212 351 372 541 611 305 387 651 957 849
1400 28 63 60 133 70 155 96 208 309 832 337 985 2 14 13 54 23 90 10 36 21
76 24 90 59 276 92 448 111 590 3 25 8 56 10 70 2 14 7 50 10 80 3 30 8 62 10
70 2 8 7 53 10 100 4 47 8 101 10 120 26 241 26 875 0 1130 -2 19 -6 69 -10
110 -3 41 -8 86 -10 100 -2 14 -7 50 -10 80 -3 30 -11 83 -16 118 -5 34 -12
84 -15 110 -3 26 -7 54 -9 62 -2 8 -7 31 -10 50 -5 32 -27 147 -40 210 -21
104 -28 137 -51 230 -73 304 -238 818 -319 995 -7 17 -23 55 -35 85 -21 54
-32 79 -113 255 -68 148 -196 395 -263 506 -19 31 -34 59 -34 63 0 3 -16 32
-36 63 -20 32 -45 72 -55 88 -211 341 -486 709 -767 1025 -208 233 -569 572
-825 775 -21 17 -44 35 -50 40 -47 42 -280 211 -417 302 -153 102 -327 213
-335 213 -2 0 -32 17 -66 38 -391 236 -963 485 -1481 646 -121 37 -460 128
-532 142 -36 7 -29 13 11 9 22 -2 80 -7 129 -10z"/>
</g>
</svg>
